<svg height="512pt" viewBox="0 -76 512 512" width="512pt" xmlns="http://www.w3.org/2000/svg"><path d="m107.832031 321.582031c-16.746093-17.53125-30.105469-37.65625-39.769531-59.929687-11.1875-25.777344-16.863281-53.15625-16.863281-81.371094s5.675781-55.59375 16.863281-81.371094c9.664062-22.273437 23.023438-42.398437 39.769531-59.929687 3.230469-3.382813 3.160157-8.730469-.089843-12.09375l-23.410157-24.21875c-3.464843-3.582031-9.195312-3.546875-12.652343.039062-21.335938 22.117188-38.332032 47.582031-50.585938 75.820313-13.996094 32.25-21.09375 66.484375-21.09375 101.753906s7.097656 69.503906 21.09375 101.753906c12.253906 28.238282 29.25 53.703125 50.585938 75.820313 3.457031 3.585937 9.191406 3.621093 12.652343.039062l23.414063-24.21875c3.25-3.363281 3.316406-8.710937.085937-12.09375zm0 0" fill="#89dbd4"/><path d="m153.601562 180.28125c0-25.277344 9.082032-49.066406 25.734376-67.8125 3.023437-3.398438 2.851562-8.574219-.308594-11.84375l-23.449219-24.257812c-3.496094-3.617188-9.335937-3.570313-12.742187.132812-26.144532 28.40625-40.4375 64.914062-40.4375 103.78125s14.292968 75.375 40.4375 103.78125c3.40625 3.703125 9.246093 3.75 12.742187.128906l23.449219-24.253906c3.160156-3.269531 3.332031-8.445312.308594-11.847656-16.652344-18.742188-25.734376-42.53125-25.734376-67.808594zm0 0" fill="#7ac5bf"/><path d="m404.167969 321.582031c16.746093-17.53125 30.105469-37.65625 39.769531-59.929687 11.1875-25.777344 16.863281-53.15625 16.863281-81.371094s-5.675781-55.589844-16.863281-81.371094c-9.664062-22.273437-23.023438-42.398437-39.769531-59.929687-3.230469-3.382813-3.164063-8.730469.089843-12.09375l23.410157-24.21875c3.464843-3.582031 9.195312-3.546875 12.652343.039062 21.335938 22.117188 38.332032 47.582031 50.585938 75.820313 13.996094 32.25 21.09375 66.484375 21.09375 101.753906s-7.097656 69.503906-21.09375 101.753906c-12.253906 28.238282-29.25 53.703125-50.585938 75.820313-3.457031 3.585937-9.191406 3.621093-12.652343.039062l-23.414063-24.21875c-3.25-3.363281-3.316406-8.710937-.085937-12.09375zm0 0" fill="#89dbd4"/><path d="m358.398438 180.28125c0-25.277344-9.082032-49.066406-25.734376-67.8125-3.023437-3.398438-2.851562-8.574219.308594-11.84375l23.449219-24.257812c3.496094-3.617188 9.335937-3.570313 12.742187.132812 26.144532 28.40625 40.4375 64.914062 40.4375 103.78125s-14.292968 75.375-40.4375 103.78125c-3.40625 3.703125-9.246093 3.75-12.742187.128906l-23.449219-24.253906c-3.160156-3.269531-3.332031-8.445312-.308594-11.847656 16.652344-18.742188 25.734376-42.53125 25.734376-67.808594zm0 0" fill="#7ac5bf"/><path d="m322.558594 180.28125c0 36.757812-29.796875 66.558594-66.558594 66.558594s-66.558594-29.800782-66.558594-66.558594c0-36.761719 29.796875-66.5625 66.558594-66.5625s66.558594 29.800781 66.558594 66.5625zm0 0" fill="#89dbd4"/><path d="m286.90625 215.933594c-36.761719 0-66.5625-29.796875-66.5625-66.558594 0-10.402344 2.390625-20.242188 6.644531-29.011719-22.222656 10.78125-37.546875 33.558594-37.546875 59.917969 0 36.757812 29.796875 66.558594 66.558594 66.558594 26.359375 0 49.136719-15.324219 59.917969-37.546875-8.769531 4.253906-18.613281 6.640625-29.011719 6.640625zm0 0" fill="#7ac5bf"/></svg>