<svg height="432pt" viewBox="-43 0 432 432" width="432pt" xmlns="http://www.w3.org/2000/svg"><path d="m311.652344 43.007812v-11.1875h-30v11.1875c0 3.3125-2.6875 6-6 6h30c3.3125 0 6-2.6875 6-6zm0 0" fill="#d4e1f4"/><path d="m42 404.476562v-357.132812c.011719-8.566406 6.953125-15.511719 15.523438-15.523438h-30c-8.570313.011719-15.511719 6.957032-15.523438 15.523438v357.132812c.011719 8.570313 6.957031 15.515626 15.523438 15.523438h30c-8.566407-.007812-15.511719-6.953125-15.523438-15.523438zm0 0" fill="#d4e1f4"/><path d="m74.710938 6v13.820312h-47.1875c-15.191407.015626-27.507813 12.328126-27.523438 27.523438v357.132812c.015625 15.195313 12.332031 27.507813 27.523438 27.523438h290.550781c15.195312-.015625 27.507812-12.328125 27.527343-27.523438v-357.132812c-.019531-15.191406-12.332031-27.503906-27.523437-27.523438h-36.425781v-13.820312c0-3.3125-2.6875-6-6-6h-194.941406c-3.316407 0-6 2.6875-6 6zm243.363281 25.820312c8.570312.011719 15.515625 6.953126 15.527343 15.523438v357.132812c-.011718 8.570313-6.957031 15.515626-15.527343 15.523438h-290.550781c-8.566407-.007812-15.511719-6.953125-15.523438-15.523438v-357.132812c.011719-8.566406 6.953125-15.511719 15.523438-15.523438h47.183593v11.1875c0 3.3125 2.683594 6 6 6h194.945313c3.3125 0 6-2.6875 6-6v-11.1875zm-231.363281-19.820312h182.941406v25.007812h-182.941406zm0 0" fill="#0635c9"/><g fill="#1ae5be"><path d="m286.414062 212.078125h-47.214843c-3.3125 0-6 2.683594-6 6 0 3.3125 2.6875 6 6 6h47.210937c3.316406 0 6-2.6875 6-6 0-3.316406-2.683594-6-6-6zm0 0"/><path d="m95.046875 218.078125c0 3.3125 2.6875 6 6 6h110.339844c3.3125 0 6-2.6875 6-6 0-3.316406-2.6875-6-6-6h-110.339844c-3.3125 0-6 2.683594-6 6zm0 0"/><path d="m59.1875 224.078125h17.414062c3.3125 0 6-2.6875 6-6 0-3.316406-2.6875-6-6-6h-17.414062c-3.3125 0-6 2.683594-6 6 0 3.3125 2.6875 6 6 6zm0 0"/><path d="m286.414062 281.921875h-131.300781c-3.3125 0-6 2.683594-6 6 0 3.3125 2.6875 6 6 6h131.300781c3.3125 0 6-2.6875 6-6 0-3.316406-2.6875-6-6-6zm0 0"/><path d="m59.1875 293.921875h68.113281c3.3125 0 6-2.6875 6-6 0-3.316406-2.6875-6-6-6h-68.113281c-3.3125 0-6 2.683594-6 6 0 3.3125 2.6875 6 6 6zm0 0"/><path d="m286.414062 346.476562h-5.453124c-3.316407 0-6 2.6875-6 6s2.683593 6 6 6h5.453124c3.3125 0 6-2.6875 6-6s-2.6875-6-6-6zm0 0"/><path d="m241.863281 346.476562c-3.3125 0-6 2.6875-6 6s2.6875 6 6 6h11.28125c3.3125 0 6-2.6875 6-6s-2.6875-6-6-6zm0 0"/><path d="m219.386719 352.476562c0-3.3125-2.6875-6-6-6h-154.203125c-3.3125 0-6 2.6875-6 6s2.6875 6 6 6h154.203125c3.3125 0 6-2.6875 6-6zm0 0"/><path d="m59.1875 169.089844h98.09375c3.3125 0 6-2.6875 6-6v-53.804688c0-3.3125-2.6875-6-6-6h-98.09375c-3.3125 0-6 2.6875-6 6v53.804688c0 3.3125 2.6875 6 6 6zm6-53.804688h86.09375v41.804688h-86.09375zm0 0"/><path d="m286.414062 157.089844h-4.167968c-3.3125 0-6 2.6875-6 6s2.6875 6 6 6h4.167968c3.3125 0 6-2.6875 6-6s-2.6875-6-6-6zm0 0"/><path d="m208.660156 169.089844h45.769532c3.3125 0 6-2.6875 6-6s-2.6875-6-6-6h-45.769532c-3.316406 0-6 2.6875-6 6s2.683594 6 6 6zm0 0"/><path d="m286.414062 103.285156h-46.136718c-3.3125 0-6 2.6875-6 6s2.6875 6 6 6h46.136718c3.3125 0 6-2.6875 6-6s-2.6875-6-6-6zm0 0"/><path d="m208.660156 115.285156h3.800782c3.3125 0 6-2.6875 6-6s-2.6875-6-6-6h-3.800782c-3.316406 0-6 2.6875-6 6s2.683594 6 6 6zm0 0"/></g></svg>