<?xml version="1.0" encoding="iso-8859-1"?>
<!-- Generator: Adobe Illustrator 19.0.0, SVG Export Plug-In . SVG Version: 6.00 Build 0)  -->
<svg version="1.1" id="Capa_1" xmlns="http://www.w3.org/2000/svg" xmlns:xlink="http://www.w3.org/1999/xlink" x="0px" y="0px"
	 viewBox="0 0 512 512" style="enable-background:new 0 0 512 512;" xml:space="preserve">
<g>
	<path style="fill:#D1D4D1;" d="M53.332,0h405.336c29.252,0,52.966,23.713,52.966,52.966v406.069
		c0,29.252-23.713,52.966-52.966,52.966H53.332c-29.252,0-52.966-23.713-52.966-52.966V52.966C0.366,23.713,24.08,0,53.332,0z"/>
	<path style="fill:#35495E;" d="M450.202,79.448V291.31c0,4.875-3.952,8.828-8.828,8.828h-35.31c-4.875,0-8.828,3.952-8.828,8.828
		v35.31c0,4.875-3.952,8.828-8.828,8.828h-26.483c-4.875,0-8.828,3.952-8.828,8.828v44.138c0,4.875-3.952,8.828-8.828,8.828H167.72
		c-4.875,0-8.828-3.952-8.828-8.828v-44.138c0-4.875-3.952-8.828-8.828-8.828h-26.483c-4.875,0-8.828-3.952-8.828-8.828v-35.31
		c0-4.875-3.952-8.828-8.828-8.828h-35.31c-4.875,0-8.828-3.952-8.828-8.828V79.448c0-4.875,3.952-8.828,8.828-8.828h370.759
		C446.25,70.621,450.202,74.573,450.202,79.448z"/>
	<g>
		<rect x="97.099" y="105.931" style="fill:#E4C05C;" width="35.31" height="70.621"/>
		<rect x="167.72" y="105.931" style="fill:#E4C05C;" width="35.31" height="70.621"/>
		<rect x="238.34" y="105.931" style="fill:#E4C05C;" width="35.31" height="70.621"/>
		<rect x="308.961" y="105.931" style="fill:#E4C05C;" width="35.31" height="70.621"/>
		<rect x="379.582" y="105.931" style="fill:#E4C05C;" width="35.31" height="70.621"/>
	</g>
	<rect x="52.961" y="414.897" style="fill:#4FBA6F;" width="70.621" height="44.138"/>
	<rect x="388.409" y="414.897" style="fill:#F29C1F;" width="70.621" height="44.138"/>
</g>
<g>
</g>
<g>
</g>
<g>
</g>
<g>
</g>
<g>
</g>
<g>
</g>
<g>
</g>
<g>
</g>
<g>
</g>
<g>
</g>
<g>
</g>
<g>
</g>
<g>
</g>
<g>
</g>
<g>
</g>
</svg>
